<svg width="15" height="19" viewBox="0 0 15 19" fill="none" xmlns="http://www.w3.org/2000/svg">
<path d="M2.5559 11.2414C1.3834 8.00394 3.7459 4.25019 7.49965 4.25019V5.81644C7.49965 6.21019 7.97215 6.40269 8.2434 6.12269L10.6846 3.68144C10.8596 3.50644 10.8596 3.23519 10.6846 3.06019L8.2434 0.618942C7.97215 0.347692 7.49965 0.540192 7.49965 0.933942V2.50019C2.45965 2.50019 -0.7166 7.55769 0.954649 11.9414C1.16465 12.4927 1.89965 12.6239 2.31965 12.2039L2.38965 12.1339C2.61715 11.9064 2.66965 11.5564 2.5559 11.2414Z" fill="#760B73"/>
<path d="M12.4348 7.76744C13.6336 11.1274 11.1486 14.7499 7.49984 14.7499V13.1837C7.49984 12.7899 7.02734 12.5974 6.75609 12.8774L4.31484 15.3187C4.13984 15.4937 4.13984 15.7649 4.31484 15.9399L6.75609 18.3812C7.02734 18.6524 7.49984 18.4599 7.49984 18.0749V16.4999C12.5398 16.4999 15.7161 11.4424 14.0448 7.05869C13.8348 6.50744 13.0998 6.37619 12.6798 6.79619L12.6186 6.85744C12.3823 7.09369 12.3298 7.44369 12.4348 7.76744Z" fill="#760B73"/>
</svg>
