<svg width="425" height="38" viewBox="0 0 425 38" fill="none" xmlns="http://www.w3.org/2000/svg">
<rect width="425" height="38" rx="5" fill="#760B73"/>
<path d="M199.578 16.4922C199.552 16.3099 199.487 16.138 199.383 15.9766C199.284 15.8151 199.154 15.6771 198.992 15.5625C198.836 15.4427 198.656 15.349 198.453 15.2812C198.255 15.2135 198.047 15.1797 197.828 15.1797C197.63 15.1797 197.445 15.2005 197.273 15.2422C197.102 15.2839 196.951 15.349 196.82 15.4375C196.695 15.5208 196.594 15.6302 196.516 15.7656C196.443 15.901 196.406 16.0625 196.406 16.25C196.406 16.4844 196.456 16.6719 196.555 16.8125C196.659 16.9479 196.789 17.0599 196.945 17.1484C197.107 17.237 197.284 17.3073 197.477 17.3594C197.669 17.4115 197.857 17.4688 198.039 17.5312L200.188 18.25C200.484 18.3542 200.763 18.4974 201.023 18.6797C201.284 18.862 201.508 19.0833 201.695 19.3438C201.888 19.6042 202.039 19.9036 202.148 20.2422C202.258 20.5807 202.312 20.9609 202.312 21.3828C202.312 21.9557 202.206 22.4792 201.992 22.9531C201.784 23.4271 201.49 23.8333 201.109 24.1719C200.729 24.5104 200.273 24.7734 199.742 24.9609C199.211 25.1484 198.622 25.2422 197.977 25.2422C197.523 25.2422 197.094 25.1901 196.688 25.0859C196.286 24.987 195.919 24.8411 195.586 24.6484C195.253 24.4557 194.961 24.2266 194.711 23.9609C194.461 23.6901 194.266 23.3854 194.125 23.0469H193.32V20.6953H196.148V21.1797C196.148 21.4141 196.185 21.6302 196.258 21.8281C196.336 22.026 196.451 22.1979 196.602 22.3438C196.753 22.4896 196.943 22.6042 197.172 22.6875C197.401 22.7656 197.669 22.8047 197.977 22.8047C198.445 22.8047 198.802 22.6979 199.047 22.4844C199.292 22.2656 199.414 21.9635 199.414 21.5781C199.414 21.3802 199.37 21.2161 199.281 21.0859C199.198 20.9505 199.089 20.8385 198.953 20.75C198.818 20.6562 198.667 20.5781 198.5 20.5156C198.333 20.4531 198.169 20.3958 198.008 20.3438L196.219 19.7656C195.88 19.6615 195.552 19.5156 195.234 19.3281C194.922 19.1406 194.643 18.9062 194.398 18.625C194.159 18.3438 193.966 18.0156 193.82 17.6406C193.68 17.2604 193.609 16.8281 193.609 16.3438C193.609 15.7812 193.714 15.2812 193.922 14.8438C194.13 14.401 194.422 14.0286 194.797 13.7266C195.172 13.4245 195.617 13.1953 196.133 13.0391C196.648 12.8828 197.214 12.8047 197.828 12.8047C198.312 12.8047 198.76 12.862 199.172 12.9766C199.583 13.0859 199.951 13.2344 200.273 13.4219C200.602 13.6094 200.878 13.8255 201.102 14.0703C201.331 14.3099 201.505 14.5599 201.625 14.8203H202.406V17.1797H199.578V16.4922ZM208.336 24.5625C208.154 24.6771 207.987 24.776 207.836 24.8594C207.685 24.9375 207.534 25 207.383 25.0469C207.232 25.099 207.076 25.1354 206.914 25.1562C206.753 25.1823 206.576 25.1953 206.383 25.1953C205.898 25.1953 205.464 25.1302 205.078 25C204.698 24.8646 204.375 24.6823 204.109 24.4531C203.849 24.2188 203.648 23.9453 203.508 23.6328C203.367 23.3151 203.297 22.9714 203.297 22.6016C203.297 22.2266 203.367 21.8802 203.508 21.5625C203.654 21.2448 203.862 20.974 204.133 20.75C204.404 20.5208 204.734 20.3438 205.125 20.2188C205.521 20.0885 205.971 20.0234 206.477 20.0234C206.846 20.0234 207.182 20.0443 207.484 20.0859C207.792 20.1224 208.076 20.1693 208.336 20.2266V19.9766C208.336 19.7734 208.297 19.599 208.219 19.4531C208.141 19.3021 208.031 19.1797 207.891 19.0859C207.75 18.987 207.581 18.9167 207.383 18.875C207.185 18.8281 206.969 18.8047 206.734 18.8047C206.245 18.8047 205.812 18.8542 205.438 18.9531C205.068 19.0469 204.711 19.1849 204.367 19.3672L203.617 17.8516C204.148 17.487 204.703 17.2083 205.281 17.0156C205.865 16.8229 206.482 16.7266 207.133 16.7266C207.638 16.7266 208.104 16.7839 208.531 16.8984C208.964 17.0078 209.333 17.1901 209.641 17.4453C209.948 17.6953 210.188 18.0234 210.359 18.4297C210.536 18.8359 210.625 19.3307 210.625 19.9141V22.8594H211.711V25H208.336V24.5625ZM206.555 23.3516C206.924 23.3516 207.26 23.2917 207.562 23.1719C207.865 23.0521 208.122 22.9062 208.336 22.7344V21.7031H206.461C206.341 21.7031 206.224 21.7214 206.109 21.7578C205.995 21.7943 205.891 21.8464 205.797 21.9141C205.708 21.9818 205.635 22.0651 205.578 22.1641C205.526 22.263 205.5 22.3776 205.5 22.5078C205.5 22.7474 205.586 22.9479 205.758 23.1094C205.935 23.2708 206.201 23.3516 206.555 23.3516ZM213.055 16.9062H217.281V19.0469H216.297L217.617 22.5234L218.891 19.0469H218.016V16.9062H222.242V19.0469H221.164L218.75 25.0312H216.367L213.953 19.0469H213.055V16.9062ZM225.289 21.4609L225.312 21.7031C225.37 21.9375 225.466 22.1432 225.602 22.3203C225.742 22.4974 225.906 22.6458 226.094 22.7656C226.281 22.8854 226.49 22.9766 226.719 23.0391C226.948 23.0964 227.18 23.125 227.414 23.125C227.648 23.125 227.87 23.112 228.078 23.0859C228.292 23.0547 228.497 23.0156 228.695 22.9688C228.893 22.9167 229.086 22.8594 229.273 22.7969C229.461 22.7292 229.651 22.6589 229.844 22.5859L230.703 24.1875C230.406 24.3698 230.133 24.526 229.883 24.6562C229.638 24.7812 229.391 24.8854 229.141 24.9688C228.891 25.0521 228.625 25.112 228.344 25.1484C228.062 25.1901 227.734 25.2109 227.359 25.2109C226.656 25.2109 226.031 25.0964 225.484 24.8672C224.938 24.6328 224.477 24.3177 224.102 23.9219C223.732 23.526 223.448 23.0625 223.25 22.5312C223.057 22 222.961 21.4375 222.961 20.8438C222.961 20.25 223.062 19.6927 223.266 19.1719C223.474 18.651 223.766 18.1979 224.141 17.8125C224.516 17.4219 224.964 17.1146 225.484 16.8906C226.005 16.6667 226.583 16.5547 227.219 16.5547C227.854 16.5547 228.417 16.6615 228.906 16.875C229.401 17.0833 229.818 17.375 230.156 17.75C230.495 18.1198 230.755 18.5573 230.938 19.0625C231.12 19.5625 231.219 20.1016 231.234 20.6797C231.25 20.8099 231.258 20.9401 231.258 21.0703C231.263 21.1953 231.26 21.3255 231.25 21.4609H225.289ZM227.156 18.5078C226.865 18.5078 226.615 18.5443 226.406 18.6172C226.203 18.6849 226.031 18.7812 225.891 18.9062C225.75 19.026 225.638 19.1641 225.555 19.3203C225.471 19.4766 225.406 19.6406 225.359 19.8125H228.742C228.706 19.6354 228.654 19.4688 228.586 19.3125C228.518 19.1562 228.424 19.0182 228.305 18.8984C228.185 18.7786 228.031 18.6849 227.844 18.6172C227.661 18.5443 227.432 18.5078 227.156 18.5078Z" fill="white"/>
</svg>
